<svg width="24" height="28" viewBox="0 0 24 28" fill="none" xmlns="http://www.w3.org/2000/svg">
<path d="M22.9506 4.53391L12.2319 0.0836104C11.9634 -0.0278428 11.6616 -0.0278975 11.3931 0.0836104L0.674352 4.53391C0.266109 4.70345 0 5.10201 0 5.54405V10.954C0 18.4032 4.50237 25.1039 11.3992 27.9189C11.6641 28.027 11.9609 28.027 12.2258 27.9189C19.1225 25.1039 23.625 18.4032 23.625 10.954V5.54405C23.625 5.10201 23.3589 4.70345 22.9506 4.53391V4.53391ZM21.4375 10.954C21.4375 17.2865 17.7188 23.1161 11.8125 25.7182C6.06408 23.1856 2.1875 17.4582 2.1875 10.954V6.27423L11.8125 2.278L21.4375 6.27423V10.954ZM10.6036 14.6407L15.3047 9.93961C15.7318 9.5125 16.4244 9.51245 16.8515 9.93961C17.2787 10.3668 17.2786 11.0593 16.8515 11.4864L11.377 16.9609C10.9497 17.3881 10.2572 17.3879 9.83019 16.9609L6.77348 13.9042C6.34632 13.477 6.34632 12.7845 6.77348 12.3574C7.20065 11.9303 7.89316 11.9302 8.32027 12.3574L10.6036 14.6407Z" fill="#809EB9"/>
</svg>
