<svg xmlns="http://www.w3.org/2000/svg"  viewBox="0 0 60.545 53.039" fill="color">
  <g  transform="translate(-26.278 -33.724)">
    <g  transform="translate(26.278 33.724)">
      <path d="M62.045,50.474,39.032,11.97A7.275,7.275,0,0,0,32.785,8.4a7.356,7.356,0,0,0-6.247,3.506L3.524,50.474a7.225,7.225,0,0,0-.064,7.267,7.136,7.136,0,0,0,6.311,3.7H55.8a7.276,7.276,0,0,0,6.247-10.965Zm-4.335,4.781A2.192,2.192,0,0,1,55.8,56.339H9.772a2.192,2.192,0,0,1-1.912-1.084,2.1,2.1,0,0,1,0-2.167L30.936,14.52a2.119,2.119,0,0,1,3.7,0L57.647,53.088A2.146,2.146,0,0,1,57.711,55.255Z" transform="translate(-2.512 -8.4)" fill="color"/>
      <path d="M48.441,51.485a2.762,2.762,0,0,0,2.741-2.741v-11.6a2.741,2.741,0,1,0-5.482,0V48.68A2.775,2.775,0,0,0,48.441,51.485Z" transform="translate(-18.169 -17.825)" fill="color"/>
      <circle  cx="3.379" cy="3.379" r="3.379" transform="translate(26.894 36.145)" fill="color"/>
    </g>
  </g>
</svg>
