<svg width="57" height="21" viewBox="0 0 57 21" fill="none" xmlns="http://www.w3.org/2000/svg">
<path d="M8.41736 4.63772C9.02535 4.43202 9.67387 4.32232 10.3467 4.32232C13.2921 4.32232 15.751 6.44508 16.3131 9.26721L20.4879 8.40329C19.5313 3.60925 15.3538 0 10.3467 0C9.19829 0 8.09851 0.189239 7.06628 0.54029L8.41736 4.63772Z" fill="white"/>
<path d="M3.49119 18.3671L6.31495 15.1281C5.05574 13.9954 4.26131 12.3416 4.26131 10.4986C4.26131 8.65834 5.05574 7.00456 6.31495 5.87461L3.49119 2.63287C1.35108 4.55817 0 7.36932 0 10.4986C0 13.6307 1.35108 16.4418 3.49119 18.3671Z" fill="white"/>
<path d="M16.3131 11.7383C15.7483 14.5577 13.2921 16.6777 10.3494 16.6777C9.67387 16.6777 9.02265 16.568 8.41736 16.3595L7.06628 20.4625C8.09851 20.8108 9.20099 21 10.3494 21C15.3511 21 19.5259 17.3962 20.4879 12.6077L16.3131 11.7383Z" fill="white"/>
<path d="M27.1385 15.2625C27.0006 15.0376 26.8169 14.6783 26.7034 14.4123C26.0414 12.8545 26.0117 11.2419 26.5683 9.69506C27.1817 7.9974 28.3544 6.70015 29.8703 6.03645C31.7754 5.20544 33.8803 5.36726 35.707 6.46703C36.8662 7.14171 37.6877 8.18389 38.3119 9.65941C38.3902 9.84864 38.4605 10.0489 38.5308 10.2216L27.1385 15.2625ZM30.9431 8.54043C29.5893 9.13009 28.8922 10.4191 29.0381 11.9275L34.7666 9.42354C33.7804 8.24972 32.4995 7.86027 30.9431 8.54043ZM35.48 13.9872C35.4773 13.9872 35.4773 13.99 35.4773 13.99L35.3584 13.9077C35.0152 14.4699 34.4829 14.9279 33.8101 15.2241C32.5293 15.7891 31.343 15.6437 30.4891 14.884L30.4108 15.0047C30.4108 15.0047 30.4108 15.002 30.4081 15.002L28.9543 17.2098C29.3164 17.4648 29.7028 17.6787 30.1081 17.8515C31.7132 18.5289 33.3561 18.496 34.9747 17.783C36.1447 17.2673 37.0635 16.483 37.6904 15.4874L35.48 13.9872Z" fill="white"/>
<path d="M42.5109 2.78918V15.0595L44.3916 15.8329L43.3242 18.3616L41.249 17.484C40.7842 17.2783 40.4653 16.9656 40.2276 16.6118C39.9979 16.2526 39.8276 15.7561 39.8276 15.0924V2.78918H42.5109Z" fill="white"/>
<path d="M47.3802 11.9357C47.3802 10.8908 47.8368 9.9528 48.5556 9.31652L46.6263 7.13342C45.3184 8.30725 44.4943 10.0214 44.4943 11.9302C44.4916 13.8418 45.3157 15.5587 46.6209 16.7325L48.5475 14.5494C47.8314 13.9104 47.3802 12.9779 47.3802 11.9357Z" fill="white"/>
<path d="M50.8064 15.4161C50.4281 15.4161 50.0606 15.3502 49.7201 15.2351L48.7987 18.0133C49.4283 18.2272 50.1011 18.3451 50.8037 18.3451C53.8571 18.3479 56.4053 16.1483 56.9971 13.2275L54.1652 12.6406C53.8436 14.2285 52.4628 15.4188 50.8064 15.4161Z" fill="white"/>
<path d="M50.8148 5.52631C50.1149 5.52631 49.4421 5.6415 48.8125 5.85267L49.7258 8.63366C50.069 8.51847 50.4338 8.45539 50.8121 8.45539C52.4712 8.45813 53.8547 9.6539 54.1682 11.2446L57 10.6632C56.4191 7.73683 53.8709 5.52905 50.8148 5.52631Z" fill="white"/>
</svg>
