<svg xmlns="http://www.w3.org/2000/svg"  viewBox="0 0 45.023 49.803" fill="color">
  <g id="Camada_2" data-name="Camada 2" transform="translate(0.2 0.2)">
    <g id="_Layer_" data-name="&lt;Layer&gt;" transform="translate(0)">
      <path id="Path_207" data-name="Path 207" d="M43.638,0H.976a.988.988,0,0,0,0,1.976H30.558L4.473,5.94A.988.988,0,0,0,4.621,7.9H29.338L8.08,11.871a.984.984,0,0,0,.182,1.951H28.1L11.677,17.8a.99.99,0,0,0,.233,1.951H26.85L15.222,23.767a.989.989,0,0,0,.325,1.922h8.239L13.334,29.707a.989.989,0,0,0,.354,1.911H23.819L9.781,35.612a.989.989,0,0,0,.27,1.938H25.066L6.217,41.521a.987.987,0,0,0,.2,1.951H26.3L2.625,47.442A.988.988,0,0,0,2.787,49.4H41.825a.988.988,0,0,0,0-1.976H14.669l23.678-3.966a.989.989,0,0,0-.163-1.963H15.9l18.85-3.973a.987.987,0,0,0-.2-1.951h-17.4l14.033-3.99a.988.988,0,0,0-.27-1.938h-11.9l10.454-4.018a.989.989,0,0,0-.353-1.911H21.442L33.064,19.71a.989.989,0,0,0-.325-1.922H20.178L36.6,13.809a.99.99,0,0,0-.231-1.951H18.934L40.188,7.888a.984.984,0,0,0-.182-1.951H17.7L43.786,1.964A.988.988,0,0,0,43.638,0Z" transform="translate(0)" fill="color" stroke="color" stroke-width="0.4"/>
    </g>
  </g>
</svg>
