<svg xmlns="http://www.w3.org/2000/svg"  viewBox="0 0 17.194 24.123" fill="color"> 
  <g transform="translate(-7.3 -0.5)">
    <path  d="M14.5,7.583V6.4a3.9,3.9,0,1,1,7.8,0V7.532h2V6.4a5.9,5.9,0,0,0-11.8,0V7.532h2Z" transform="translate(-2.531)" fill="color"/>
    <path  d="M21.774,18.2H9.969A3,3,0,0,0,7.3,21.177v9.085a2.979,2.979,0,0,0,2.977,2.977h11.24a2.979,2.979,0,0,0,2.977-2.977V21.177A3.09,3.09,0,0,0,21.774,18.2ZM16.9,28.722a1.027,1.027,0,0,1-2.053,0v-1.95a1.027,1.027,0,1,1,2.053,0Z" transform="translate(0 -8.615)" fill="color"/>
  </g>
</svg>
