<svg id="mastercard" xmlns="http://www.w3.org/2000/svg"  viewBox="0 0 34.36 21.473" fill="color"> 
  <path  d="M21.467,65.456A10.733,10.733,0,1,1,10.733,54.719,10.734,10.734,0,0,1,21.467,65.456Z" transform="translate(0 -54.719)" fill="color"/>
  <path  d="M120.168,54.719a10.674,10.674,0,0,0-6.414,2.141h.009a9.2,9.2,0,0,1,1.04.972l-2.233.035a11.04,11.04,0,0,0-.969,1.137h3.938a9.977,9.977,0,0,1,.828,1.069h-5.48a10.7,10.7,0,0,0-.549,1.07h6.652a9.143,9.143,0,0,1,.462,1.036h-7.508a10.339,10.339,0,0,0-.3,1.136h8.121c.079.372.141.715.183,1.065h-8.465c-.035.353-.054.712-.054,1.074h8.58a9.432,9.432,0,0,1-.065,1.074h-8.46q.055.546.161,1.074h8.108c-.084.348-.18.7-.3,1.061h-7.533a10.424,10.424,0,0,0,.4,1.071h6.667a9.781,9.781,0,0,1-.625,1.069h-5.5a10.449,10.449,0,0,0,.716,1.078l3.955.059a10.452,10.452,0,0,1-1.164,1c.021.017-.63,0-1.913-.022a10.734,10.734,0,1,0,7.707-18.2Z" transform="translate(-96.544 -54.719)" fill="color"/>
</svg>
