<svg width="47" height="21" viewBox="0 0 47 21" fill="none" xmlns="http://www.w3.org/2000/svg">
<path d="M12.9025 0H8.03131C5.87902 0.104458 4.11968 0.994295 3.61169 2.82928C3.3468 3.78626 3.20103 4.83728 2.9939 5.8293C1.94092 10.8735 1.00722 16.0566 0 21H37.9232C40.855 21 42.868 20.3641 43.412 17.9756C43.6647 16.8661 43.9068 15.6093 44.1486 14.3902C45.0912 9.63725 46.0346 4.88454 47 0H12.9025Z" fill="white"/>
<path d="M32.4686 12.5465C31.9426 13.075 30.4663 13.2251 30.6173 11.9618C30.7428 10.9126 31.8556 10.6896 33.0619 10.8411C32.9722 11.415 32.8694 12.1438 32.4686 12.5465ZM30.8072 8.45362C30.7569 8.74309 30.6798 9.00502 30.6173 9.28191C31.2196 9.12696 33.0949 8.65171 33.2756 9.47677C33.3356 9.75091 33.2321 10.0422 33.1569 10.2564C31.461 10.0916 30.0789 10.3807 29.7154 11.6207C29.4719 12.4512 29.7427 13.2686 30.2613 13.4967C31.2602 13.9359 32.4752 13.4328 32.8958 12.7415C32.8521 12.9808 32.8108 13.2225 32.8246 13.521H33.7027C33.712 12.6578 33.8344 11.959 33.9638 11.1821C34.0741 10.5206 34.2816 9.86575 34.2486 9.28191C34.1732 7.94479 32.0152 8.41777 30.8072 8.45362ZM39.6126 12.9606C38.9255 12.9758 38.5839 12.5393 38.5683 11.8157C38.5409 10.5483 39.0825 9.1402 40.1822 9.01392C40.6942 8.95517 41.065 9.07739 41.4401 9.20888C41.0957 10.6325 41.2201 12.9253 39.6126 12.9606ZM41.8911 6.26099C41.8036 7.04821 41.6867 7.80526 41.5352 8.52665C39.0317 7.71332 37.4964 9.60391 37.5239 11.9374C37.5294 12.3887 37.605 12.8363 37.88 13.1555C38.3539 13.7057 39.7108 13.8373 40.3958 13.3749C40.5285 13.2854 40.664 13.1225 40.7519 13.0095C40.8179 12.9243 40.9228 12.7016 40.9417 12.7657C40.9057 13.0131 40.8519 13.2421 40.8468 13.521H41.7725C41.9508 10.8943 42.5024 8.65067 42.9117 6.26099H41.8911ZM15.7596 12.5709C15.2136 13.1645 13.8712 13.1554 13.766 12.1567C13.7201 11.7221 13.8779 11.2664 13.9558 10.8168C14.0347 10.3617 14.0915 9.92506 14.1694 9.52549C14.7072 8.8514 16.2876 8.77005 16.4479 9.89101C16.5871 10.8642 16.2118 12.0793 15.7596 12.5709ZM16.5666 8.45362C15.7028 8.12055 14.65 8.51814 14.1937 8.89633C14.1953 8.91298 14.1828 8.91525 14.1694 8.91648C14.1772 8.90977 14.1856 8.90305 14.1937 8.89633C14.1936 8.89492 14.1935 8.89369 14.1931 8.89217C14.2009 8.72947 14.2566 8.61624 14.2644 8.45362H13.3862C13.0203 10.9528 12.5863 13.382 12.1283 15.7867H13.1488C13.2965 14.8501 13.3941 13.8621 13.5998 12.9851C13.8329 13.9076 15.3548 13.7312 15.9969 13.3749C17.322 12.6394 18.3441 9.13897 16.5666 8.45362ZM21.4084 10.2077H19.0113C19.0871 9.64203 19.5829 9.02025 20.364 8.9896C21.0993 8.96075 21.6257 9.26668 21.4084 10.2077ZM20.4353 8.35619C19.6978 8.41446 19.0745 8.63232 18.6315 9.11135C18.0881 9.69898 17.6481 10.9981 17.777 12.1811C17.961 13.8689 20.0082 13.8083 21.6458 13.3992C21.6736 13.103 21.7435 12.8498 21.7881 12.5709C21.1136 12.83 19.9423 13.1917 19.2486 12.7415C18.7248 12.4015 18.7217 11.5406 18.8926 10.7924C19.9931 10.7565 21.137 10.7634 22.2391 10.7924C22.309 10.2621 22.5091 9.68394 22.334 9.16016C22.1031 8.46867 21.2765 8.28969 20.4353 8.35619ZM11.4637 8.45362C11.4361 8.45769 11.4379 8.49213 11.4399 8.52665C11.2151 10.2529 10.9108 11.8978 10.5856 13.521H11.6061C11.8513 11.7831 12.1322 10.0819 12.4843 8.45362H11.4637ZM38.0936 8.47794C37.1916 8.01508 36.4407 8.79181 36.1475 9.2575C36.231 9.01855 36.2358 8.69863 36.3135 8.45362H35.4116C35.1685 10.1936 34.8753 11.8823 34.5334 13.521H35.5778C35.5844 12.8494 35.7129 12.3526 35.8151 11.6938C36.0334 10.2875 36.3537 8.74507 37.9513 9.20888C38.0043 8.97097 38.0263 8.70118 38.0936 8.47794ZM26.6299 12.3272C26.5359 12.0778 26.5115 11.6658 26.535 11.3527C26.5878 10.6487 26.8376 9.79168 27.2233 9.40375C27.7555 8.86824 28.8062 8.95688 29.6442 9.2575C29.6701 8.96756 29.7269 8.70903 29.7628 8.42931C28.3884 8.19888 27.0841 8.34219 26.3926 9.08704C25.7157 9.81618 25.2719 11.492 25.5856 12.5465C25.9528 13.7804 27.5991 13.8475 28.9322 13.3749C28.9911 13.1269 29.0224 12.8503 29.0746 12.5952C28.3462 12.9837 26.9536 13.1856 26.6299 12.3272ZM26.0604 8.45362C25.1554 8.07846 24.444 8.71244 24.1142 9.30631C24.1889 9.04211 24.2198 8.73268 24.2803 8.45362H23.3783C23.1579 10.2089 22.8328 11.8567 22.5239 13.521H23.5446C23.6876 12.5331 23.7493 11.2014 24.0666 10.2564C24.3203 9.50127 24.984 8.85793 25.9417 9.20888C25.9551 8.93029 26.0328 8.71764 26.0604 8.45362ZM9.61248 6.40714C9.46669 7.37816 9.30246 8.33027 9.13778 9.28191C8.08046 9.29335 7.00094 9.33554 5.98113 9.2575C6.17374 8.32658 6.31188 7.33957 6.5032 6.40714H5.36405C4.95616 8.78216 4.58523 11.1949 4.12988 13.521H5.29281C5.47528 12.3277 5.64586 11.1223 5.88612 9.98844C6.87772 9.96338 8.06618 9.91967 9.01908 10.0128C8.8226 11.1917 8.58521 12.3285 8.402 13.521H9.56502C9.93862 11.111 10.3324 8.72161 10.7992 6.40714H9.61248ZM12.508 7.4791C12.7115 7.33531 12.9735 6.67995 12.6742 6.40714C12.5794 6.32077 12.4207 6.2957 12.1995 6.33411C11.9943 6.36968 11.8762 6.44119 11.796 6.55329C11.667 6.73359 11.5489 7.27714 11.7485 7.4791C11.9429 7.67576 12.3786 7.57057 12.508 7.4791Z" fill="#344D66"/>
</svg>
