<svg xmlns="http://www.w3.org/2000/svg" viewBox="0 0 62.358 57.846" fill="color">
  <path d="M145.379,53.465v-5.8a5.481,5.481,0,1,0-10.961,0v.863l-8.41-8.41a5.416,5.416,0,0,0-8.792,1.65,5.48,5.48,0,0,0-8.177,4.461,5.479,5.479,0,0,0-5.167,5.167,5.48,5.48,0,0,0-3.571,9.347l1.514,1.514a5.479,5.479,0,0,0-1.514,8.821l17.224,17.224a11.584,11.584,0,0,0,16.363,0l13.183-13.183a6.653,6.653,0,0,0,1.962-4.737V58.631a5.489,5.489,0,0,0-3.654-5.166ZM120.927,42.7a1.768,1.768,0,0,1,2.5,0l11.529,11.529a1.827,1.827,0,0,0,3.119-1.292V47.669a1.827,1.827,0,0,1,3.654,0v5.8h0a5.489,5.489,0,0,0-3.654,5.167v3.716L120.927,45.2a1.769,1.769,0,0,1,0-2.5Zm-7.708,2.541a1.829,1.829,0,0,1,2.583,0l1.514,1.514a5.464,5.464,0,0,0-2.584,2.584l-1.514-1.514a1.827,1.827,0,0,1,0-2.584Zm32.16,25.141a3.027,3.027,0,0,1-.892,2.153L131.3,85.723a7.926,7.926,0,0,1-11.2,0l-9.473-9.474L102.884,68.5a1.827,1.827,0,1,1,2.584-2.583l7.751,7.751a1.827,1.827,0,1,0,2.583-2.584L102.884,58.164a1.827,1.827,0,1,1,2.584-2.583L118.386,68.5a1.8,1.8,0,0,0,.138.126,1.828,1.828,0,0,0,2.306,0,1.831,1.831,0,0,0,.138-2.709L108.052,53a1.827,1.827,0,0,1,2.583-2.583l5.167,5.167,7.751,7.751a1.827,1.827,0,0,0,2.584-2.583L118.386,53a1.827,1.827,0,1,1,2.583-2.583l7.751,7.751,9.886,9.886a1.827,1.827,0,0,0,3.119-1.292V58.632a1.827,1.827,0,1,1,3.654,0Zm0,0" transform="translate(-86.675 -33.843)" fill="color"/>
  <path d="M121.827,9.5a1.827,1.827,0,0,0,1.827-1.827V1.827a1.827,1.827,0,1,0-3.654,0V7.673A1.827,1.827,0,0,0,121.827,9.5Zm0,0" transform="translate(-105.385)" fill="color"/>
  <path d="M32.119,29.535a1.827,1.827,0,1,0-2.583,2.583L33.92,36.5A1.827,1.827,0,1,0,36.5,33.92Zm0,0" transform="translate(-25.468 -25.468)" fill="color"/>
  <path d="M7.673,120H1.827a1.827,1.827,0,1,0,0,3.654H7.673a1.827,1.827,0,1,0,0-3.654Zm0,0" transform="translate(0 -105.385)" fill="color"/>
</svg>
