<svg  xmlns="http://www.w3.org/2000/svg"  viewBox="0 0 24.819 20.875" fill="color">
  <path d="M35.226,65.5a2.865,2.865,0,1,0,2.8,2.834,2.8,2.8,0,0,0-2.8-2.834Z" transform="translate(-25.291 -50.352)" fill="color"/>
  <path  d="M63.856,65.5a2.865,2.865,0,1,0,2.773,2.834A2.8,2.8,0,0,0,63.856,65.5Z" transform="translate(-45.175 -50.35)" fill="color"/>
  <path  d="M33.193,19H15.121l-.792-2.529a.914.914,0,0,0-.853-.67H9.3v1.829h3.474L16.4,29.27a.884.884,0,0,0,.853.64h13.2a.945.945,0,0,0,.884-.64l2.743-9.082A.914.914,0,0,0,33.193,19Z" transform="translate(-9.3 -15.8)" fill="color"/>
</svg>
