<svg xmlns="http://www.w3.org/2000/svg"  viewBox="0 0 59.856 59.094" fill="color">
  <g id="medal_2_" data-name="medal (2)" transform="translate(-15.567 -3.834)">
    <path id="Path_237" data-name="Path 237" d="M16.872,37.169a3.907,3.907,0,0,1,0-5.829L18,30.3a4.04,4.04,0,0,0,1.044-4.437l-.609-1.392a3.972,3.972,0,0,1,2.523-5.307l1.479-.435a3.9,3.9,0,0,0,2.871-3.567l.087-1.566a3.889,3.889,0,0,1,4.611-3.654l1.479.261a3.916,3.916,0,0,0,4.089-2l.7-1.3a3.909,3.909,0,0,1,5.742-1.3l1.218.87a3.792,3.792,0,0,0,4.611.174l1.218-.87a3.909,3.909,0,0,1,5.742,1.3l.7,1.392a3.916,3.916,0,0,0,4.089,2l1.479-.261a3.815,3.815,0,0,1,4.524,3.654l.087,1.566a3.9,3.9,0,0,0,2.871,3.567l1.479.435a3.887,3.887,0,0,1,2.523,5.307l-.609,1.392a3.766,3.766,0,0,0,1.044,4.437L74.118,31.6a3.907,3.907,0,0,1,0,5.829l-1.131,1.044a4.04,4.04,0,0,0-1.044,4.437l.609,1.392a3.972,3.972,0,0,1-2.523,5.307l-1.479.435a3.9,3.9,0,0,0-2.871,3.567l-.087,1.566a3.889,3.889,0,0,1-4.611,3.654L59.5,58.571a3.916,3.916,0,0,0-4.089,2l-.7,1.305a3.909,3.909,0,0,1-5.742,1.3l-1.218-.87a3.923,3.923,0,0,0-4.524,0l-1.218.87a3.909,3.909,0,0,1-5.742-1.3l-.7-1.392a3.916,3.916,0,0,0-4.089-2H29.835a3.815,3.815,0,0,1-4.524-3.654l-.087-1.566A3.9,3.9,0,0,0,22.353,49.7l-1.479-.435a3.887,3.887,0,0,1-2.523-5.307l.609-1.392a3.766,3.766,0,0,0-1.044-4.437Z" transform="translate(0 -1.004)" fill="color"/>
    <g id="Group_321" data-name="Group 321" transform="translate(32.727 22.19)">
      <path id="Path_239" data-name="Path 239" d="M37.472,147.994H34.856V147H20.528v.994H17.912A2.912,2.912,0,0,0,15,150.9v1.869a7.027,7.027,0,0,0,7.03,7.009h.451a7.483,7.483,0,0,0,3.286,2.1.635.635,0,0,1,.444.656l-.557,6.4a14.283,14.283,0,0,1-2.285,1.84,1.208,1.208,0,0,0-.444.938v.529h9.533v-.529a1.208,1.208,0,0,0-.444-.938,14.283,14.283,0,0,1-2.285-1.84l-.557-6.4a.62.62,0,0,1,.444-.656,7.382,7.382,0,0,0,3.286-2.1h.451a7.027,7.027,0,0,0,7.03-7.009V150.9A2.912,2.912,0,0,0,37.472,147.994Zm-20.724,4.774V150.9a1.165,1.165,0,0,1,1.163-1.163h2.616v5.056a7.193,7.193,0,0,0,.74,3.18A5.265,5.265,0,0,1,16.749,152.768Zm21.887,0a5.284,5.284,0,0,1-4.513,5.211,7.314,7.314,0,0,0,.74-3.18v-5.063h2.616a1.165,1.165,0,0,1,1.163,1.163v1.869Z" transform="translate(-15 -147)" fill="#fff"/>
    </g>
  </g>
</svg>
