<svg width="27" height="18" viewBox="0 0 27 18" fill="none" xmlns="http://www.w3.org/2000/svg">
<path d="M7.19551 7.80579C6.68974 7.80579 6.30204 7.97299 6.30204 7.97299L6.19496 8.62703C6.19496 8.62703 6.51477 8.49327 6.99903 8.49327C7.27391 8.49327 7.47469 8.52474 7.47469 8.7544C7.47469 8.89406 7.45031 8.94569 7.45031 8.94569C7.45031 8.94569 7.23375 8.9275 7.13336 8.9275C6.49517 8.9275 5.82495 9.20682 5.82495 10.0522C5.82495 10.718 6.26427 10.87 6.53724 10.87C7.05783 10.87 7.28251 10.5228 7.29398 10.5218L7.2696 10.8119H7.91927L8.20896 8.72194C8.20849 7.83431 7.45652 7.80579 7.19551 7.80579ZM6.83124 10.2341C6.60225 10.2341 6.5425 10.0546 6.5425 9.94741C6.5425 9.73989 6.65197 9.49007 7.19264 9.49007C7.31884 9.49057 7.33223 9.50384 7.35326 9.50778C7.3676 9.63564 7.27582 10.2341 6.83124 10.2341Z" fill="white"/>
<path d="M9.54102 8.50651C9.64476 8.50651 10.0449 8.54044 10.0449 8.54044L10.1381 7.87066C10.1381 7.87066 9.879 7.81116 9.45737 7.81116C8.91144 7.81116 8.35786 8.0354 8.35786 8.80206C8.35786 9.6715 9.28145 9.58298 9.28145 9.94983C9.28145 10.1937 9.0233 10.2139 8.82443 10.2139C8.47976 10.2139 8.16999 10.0929 8.16903 10.0979L8.07056 10.7622C8.08824 10.7671 8.27946 10.8547 8.89853 10.8547C9.06441 10.8547 10.0143 10.8989 10.0143 9.89033C10.0143 8.94713 9.13516 9.13351 9.13516 8.75436C9.13516 8.56552 9.2781 8.50651 9.54102 8.50651Z" fill="white"/>
<path d="M11.0935 8.59211H11.4841L11.5782 7.87807H11.2101L11.2852 7.43549H10.5476C10.5313 7.45171 10.1121 9.93167 10.1121 10.2326C10.1121 10.6806 10.3563 10.8793 10.7001 10.8759C10.9692 10.8739 11.1791 10.7972 11.2532 10.776L11.3454 10.1308C11.2947 10.1308 11.2206 10.1535 11.1552 10.1535C10.8984 10.1535 10.8702 10.0123 10.8865 9.90856L11.0935 8.59211Z" fill="white"/>
<path d="M24.4572 13.0347C24.4429 13.0125 24.4309 12.9958 24.4214 12.9855C24.4161 12.9806 24.4094 12.9752 24.4008 12.9727C24.4214 12.9712 24.4386 12.9634 24.451 12.9501C24.463 12.9368 24.4697 12.9211 24.4697 12.9029C24.4697 12.8901 24.4658 12.8778 24.4587 12.8665C24.4515 12.8552 24.441 12.8468 24.4281 12.8424C24.4161 12.8375 24.3956 12.835 24.3674 12.835H24.2842V13.0834H24.3234V12.9781H24.3458C24.3592 12.9781 24.3702 12.9811 24.3764 12.987C24.3865 12.9953 24.4008 13.0145 24.4176 13.0445L24.4386 13.0839H24.4869L24.4572 13.0347ZM24.3702 12.9452H24.3224V12.8704H24.3674C24.386 12.8704 24.3984 12.8719 24.4056 12.8749C24.4133 12.8778 24.418 12.8822 24.4223 12.8876C24.4262 12.8935 24.4281 12.8999 24.4281 12.9068C24.4281 12.9181 24.4242 12.928 24.4161 12.9348C24.408 12.9412 24.3922 12.9452 24.3702 12.9452Z" fill="white"/>
<path d="M4.92084 7.20142L4.19373 9.41927L4.15597 7.20142H3.07941L2.4895 10.8154H3.20131L3.6502 8.09102L3.71617 10.8154H4.22433L5.17229 8.09102L4.75209 10.8154H5.5074L6.08918 7.20142H4.92084Z" fill="white"/>
<path d="M19.1547 7.80579C18.648 7.80579 18.2608 7.97299 18.2608 7.97299L18.1532 8.62703C18.1532 8.62703 18.4735 8.49327 18.9573 8.49327C19.2322 8.49327 19.4334 8.52474 19.4334 8.7544C19.4334 8.89406 19.4081 8.94569 19.4081 8.94569C19.4081 8.94569 19.192 8.9275 19.0907 8.9275C18.4529 8.9275 17.7832 9.20682 17.7832 10.0522C17.7832 10.718 18.223 10.87 18.4955 10.87C19.0156 10.87 19.2403 10.5228 19.2522 10.5218L19.2279 10.8119H19.877L20.1667 8.72194C20.1682 7.83431 19.4157 7.80579 19.1547 7.80579ZM18.7914 10.2341C18.5619 10.2341 18.5027 10.0546 18.5027 9.94741C18.5027 9.73989 18.6121 9.49007 19.1528 9.49007C19.2785 9.49057 19.2919 9.50384 19.3134 9.50778C19.3273 9.63564 19.235 10.2341 18.7914 10.2341Z" fill="white"/>
<path d="M24.4803 10.4824C24.4607 10.4451 24.432 10.4165 24.3962 10.3969C24.3608 10.3767 24.3245 10.3669 24.2862 10.3669C24.2494 10.3674 24.2126 10.3772 24.1763 10.3969C24.1404 10.4165 24.1127 10.4451 24.0926 10.4824C24.0725 10.5193 24.0625 10.5577 24.0625 10.5975C24.0625 10.6374 24.0725 10.6752 24.0926 10.7116C24.1122 10.748 24.1399 10.777 24.1753 10.7977C24.2112 10.8178 24.248 10.8282 24.2862 10.8282C24.3254 10.8282 24.3627 10.8178 24.3976 10.7977C24.433 10.777 24.4607 10.748 24.4803 10.7116C24.5009 10.6752 24.51 10.6374 24.51 10.5975C24.51 10.5567 24.5004 10.5183 24.4803 10.4824ZM24.4492 10.6924C24.433 10.7229 24.41 10.746 24.3799 10.7642C24.3503 10.7809 24.3197 10.7898 24.2877 10.7898C24.2552 10.7898 24.2241 10.7809 24.1949 10.7642C24.1648 10.747 24.1423 10.7234 24.1251 10.6924C24.1079 10.6614 24.1003 10.63 24.1003 10.597C24.1003 10.5641 24.1084 10.5321 24.1261 10.5011C24.1428 10.4706 24.1653 10.447 24.1959 10.4298C24.2265 10.4126 24.2566 10.4052 24.2877 10.4052C24.3187 10.4052 24.3493 10.4131 24.3785 10.4298C24.4091 10.447 24.4316 10.4702 24.4483 10.5011C24.465 10.5321 24.4741 10.5641 24.4741 10.597C24.4741 10.63 24.466 10.6619 24.4492 10.6924Z" fill="white"/>
<path d="M24.363 10.6757C24.3491 10.6526 24.3367 10.6363 24.3276 10.6265C24.3219 10.6211 24.3157 10.6167 24.3071 10.6137C24.3276 10.6122 24.3443 10.6044 24.3568 10.5911C24.3687 10.5783 24.3759 10.5616 24.3759 10.5439C24.3759 10.5316 24.3721 10.5188 24.3644 10.5075C24.3568 10.4967 24.3467 10.4883 24.3348 10.4834C24.3228 10.4785 24.3018 10.476 24.2736 10.476H24.1895V10.7239H24.2287V10.6186H24.2511C24.265 10.6186 24.276 10.6216 24.2827 10.627C24.2927 10.6358 24.3061 10.6545 24.3238 10.6855L24.3443 10.7244H24.3926L24.363 10.6757ZM24.2769 10.5847H24.2296V10.5095H24.2736C24.2927 10.5095 24.3051 10.5109 24.3128 10.5134C24.319 10.5168 24.3247 10.5203 24.3286 10.5267C24.3329 10.5331 24.3348 10.5385 24.3348 10.5468C24.3348 10.5576 24.3305 10.567 24.3233 10.5739C24.3142 10.5822 24.2994 10.5847 24.2769 10.5847Z" fill="white"/>
<path d="M21.6615 7.84167C21.3312 7.84167 21.086 8.30541 21.086 8.30541L21.1519 7.87905H20.4645L20.0042 10.8208H20.7614C20.977 9.56383 21.0162 8.5444 21.5282 8.73078C21.6185 8.24492 21.7055 8.05658 21.8035 7.85151C21.8035 7.852 21.7576 7.84167 21.6615 7.84167Z" fill="white"/>
<path d="M23.5642 7.20533L23.405 8.22082C23.405 8.22082 23.1277 7.82594 22.6927 7.82594C22.0163 7.82643 21.4531 8.66489 21.4531 9.62776C21.4531 10.2498 21.7538 10.8591 22.3676 10.8591C22.8098 10.8591 23.0546 10.5419 23.0546 10.5419L23.0225 10.8129H23.7401L24.3042 7.20386L23.5642 7.20533ZM22.6286 10.1215C22.3628 10.1215 22.2386 9.89233 22.2386 9.53236C22.2386 8.94371 22.4953 8.55571 22.8199 8.55571C23.0847 8.55621 23.2209 8.74357 23.2209 9.18517C23.2209 9.58596 23.0283 10.1215 22.6286 10.1215Z" fill="white"/>
<path d="M26.3049 0H0.695078C0.310729 0 0 0.320137 0 0.715023V17.285C0 17.6799 0.310729 18 0.695078 18H26.3049C26.6893 18 27 17.6799 27 17.285V0.715023C27 0.320137 26.6893 0 26.3049 0ZM24.5758 13.0706C24.5558 13.1079 24.5285 13.1365 24.4931 13.1566C24.4578 13.1768 24.4205 13.1871 24.3822 13.1871C24.343 13.1871 24.3057 13.1768 24.2704 13.1566C24.2355 13.1365 24.2077 13.1079 24.1872 13.0706C24.1676 13.0347 24.1575 12.9963 24.1575 12.9565C24.1575 12.9166 24.1676 12.8788 24.1877 12.8414C24.2073 12.804 24.2359 12.776 24.2713 12.7558C24.3072 12.7367 24.3435 12.7263 24.3817 12.7263C24.4195 12.7263 24.4558 12.7367 24.4912 12.7558C24.5271 12.776 24.5553 12.804 24.5749 12.8414C24.595 12.8788 24.6045 12.9171 24.6045 12.9565C24.6045 12.9958 24.5959 13.0357 24.5758 13.0706ZM25.0768 9.00025C25.0778 12.9368 21.9772 16.1293 18.1499 16.1303C16.3601 16.1308 14.7281 15.433 13.4986 14.2867C12.269 15.431 10.6403 16.1284 8.8534 16.1284C5.02856 16.1284 1.92413 12.9353 1.92413 9.00025C1.92413 5.08089 5.00418 1.89722 8.80894 1.87165C8.82376 1.87165 8.83858 1.87165 8.8534 1.87165C10.6403 1.87165 12.2695 2.56897 13.499 3.7133C14.7281 2.56848 16.3582 1.87067 18.1466 1.87017C21.9738 1.8687 25.0768 5.05975 25.0778 8.9968C25.0768 8.99779 25.0768 8.99828 25.0768 9.00025Z" fill="white"/>
<path d="M13.7329 9.59479C13.7329 9.59479 13.83 9.10303 13.83 8.90288C13.83 8.40275 13.5881 7.79297 12.7783 7.79297C12.0363 7.79346 11.4871 8.61569 11.4871 9.54512C11.4871 10.6177 12.175 10.8724 12.7615 10.8724C13.3027 10.8724 13.5407 10.7475 13.5407 10.7475L13.6708 10.0157C13.6708 10.0157 13.2592 10.2026 12.8873 10.2026C12.0951 10.2026 12.2338 9.59479 12.2338 9.59479H13.7329ZM12.7807 8.47406C13.197 8.47406 13.1201 8.9555 13.1201 8.99385H12.3012C12.3012 8.94419 12.3786 8.47406 12.7807 8.47406Z" fill="white"/>
<path d="M17.1928 7.89378C17.5681 7.89378 17.8697 8.11065 17.8697 8.11065L17.9902 7.30661C17.9902 7.30661 17.5437 7.12073 17.1593 7.12073C16.3079 7.12073 15.4795 7.88099 15.4795 9.30858C15.4795 10.2552 15.9265 10.8803 16.807 10.8803C17.0556 10.8803 17.4524 10.7765 17.4524 10.7765L17.5843 9.94836C17.5843 9.94836 17.2229 10.1347 16.9743 10.1347C16.4504 10.1343 16.2405 9.72314 16.2405 9.28252C16.2405 8.38603 16.6909 7.89378 17.1928 7.89378Z" fill="white"/>
<path d="M15.466 7.8426C15.1357 7.8426 14.8909 8.30633 14.8909 8.30633L14.9574 7.87997H14.2704L13.8101 10.8217H14.5673C14.7819 9.56524 14.8221 8.54533 15.3341 8.73171C15.4239 8.24535 15.5105 8.05701 15.6085 7.85145C15.6085 7.85145 15.5626 7.84161 15.466 7.8426Z" fill="white"/>
</svg>
