<svg id="hamburguer" xmlns="http://www.w3.org/2000/svg" viewBox="0 0 20 12.486">
  <path id="Path_117" data-name="Path 117" d="M79.156,334.949H97.244a.975.975,0,0,0,0-1.949H79.156a.975.975,0,0,0,0,1.949Z" transform="translate(-78.2 -322.463)" fill="color"/>
  <path id="Path_118" data-name="Path 118" d="M79.156,240.949H97.244a.975.975,0,0,0,0-1.949H79.156a.975.975,0,0,0,0,1.949Z" transform="translate(-78.2 -233.732)" fill="color"/>
  <path id="Path_119" data-name="Path 119" d="M79.156,146.949H97.244a.975.975,0,0,0,0-1.949H79.156a.975.975,0,0,0,0,1.949Z" transform="translate(-78.2 -145)" fill="color"/>
</svg>
