<svg xmlns="http://www.w3.org/2000/svg" viewBox="0 0 17.013 20.912" fill="color">
  <g>
    <path d="M8.506,0c-2.345,0-4.25,1.494-4.25,4.653s1.957,5.8,4.25,5.8,4.257-2.614,4.257-5.818S10.859,0,8.506,0ZM3.562,12.577a14.832,14.832,0,0,1,4.944-.8,14.772,14.772,0,0,1,4.937.8,6.58,6.58,0,0,1,3.338,2.36,1.3,1.3,0,0,1,.232.747v3.928a1.307,1.307,0,0,1-1.329,1.3H1.307A1.307,1.307,0,0,1,0,19.634V15.684a1.329,1.329,0,0,1,.217-.747,6.624,6.624,0,0,1,3.346-2.36Z" transform="translate(0 0)" fill="color" fill-rule="evenodd"/>
  </g>
</svg>
