<svg xmlns="http://www.w3.org/2000/svg"  viewBox="0 0 27.689 28.661" fill="color">
  <path d="M28.745,9.616c-.079-.094-.158-.184-.243-.272a7.779,7.779,0,0,0-.878-.805L27.7,8.43A4.684,4.684,0,0,0,20.41,2.6l-.878.957a7.184,7.184,0,0,0-9.175,8.2L3.588,16.815a1.133,1.133,0,0,0-.445.752l-.427,2.972A1.01,1.01,0,0,0,3.57,21.68l3.138.451h.105a.732.732,0,0,0,.439-.146l.951-.711A.732.732,0,0,0,8.5,20.8l.222-1.464.837.12A1.361,1.361,0,0,0,11.1,18.3l.12-.84,1.464.19a.726.726,0,0,0,.536-.141l.925-.7a6.78,6.78,0,0,0,2.661.749h.041c.085.155.173.31.269.463l-4.432,7.208a1.133,1.133,0,0,0-.138.864l.7,2.928a1.007,1.007,0,0,0,1.215.747l3.086-.738A.732.732,0,0,0,18,28.7l.624-1.013a.732.732,0,0,0,.091-.547l-.337-1.455.811-.2a1.361,1.361,0,0,0,1.007-1.639l-.2-.829,1.435-.363a.732.732,0,0,0,.445-.328l.6-.987A7.211,7.211,0,0,0,30.118,16.1a7.05,7.05,0,0,0-1.063-6.089Q28.909,9.809,28.745,9.616Zm-7.26-6.025a3.22,3.22,0,0,1,5,4.008l-.108.155a7.12,7.12,0,0,0-2.635-.732,7.3,7.3,0,0,0-2.8-2.854Zm2.928,8.358a.749.749,0,1,1-.565-.091.741.741,0,0,1,.571.091Zm-9.954,3.373a.732.732,0,0,0-.817.041l-1.066.8-1.7-.222a.916.916,0,0,0-1.036.776l-.184,1.276L8.38,17.81a.913.913,0,0,0-1.033.77l-.258,1.707-.468.351L4.229,20.3l.343-2.389,7.026-5.27a.732.732,0,0,0,.269-.764,5.723,5.723,0,0,1,10.2-4.781c-.187.029-.375.064-.562.108a7.187,7.187,0,0,0-5.281,8.827,5.718,5.718,0,0,1-1.768-.706Zm14.257.369a5.747,5.747,0,0,1-6.479,4.143.729.729,0,0,0-.744.34l-.7,1.145-1.666.419a.913.913,0,0,0-.67,1.1l.293,1.253-1.253.293a.913.913,0,0,0-.679,1.1l.389,1.683-.293.5-2.342.562-.562-2.342L18.6,18.4a.732.732,0,0,0-.032-.817,5.721,5.721,0,0,1,6.968-8.6l-1,1.464a2.21,2.21,0,0,0-1.66,4.037h0a2.2,2.2,0,0,0,1.153.328,2.234,2.234,0,0,0,.518-.061,2.21,2.21,0,0,0,1.224-3.513l1.019-1.464a6.338,6.338,0,0,1,.653.6q.1.105.19.214t.246.313a5.562,5.562,0,0,1,.837,4.79Z" transform="translate(-2.705 -1.136)" fill="color"/>
</svg>
