<svg id="icone" xmlns="http://www.w3.org/2000/svg" viewBox="0 0 56.911 61.529" fill="color">
  <path id="Path_164" data-name="Path 164" d="M230.384,18.093a5.051,5.051,0,0,0,9.21,4.149c.909-2.017.089-4.064-.5-6.073a4.8,4.8,0,0,1,1.681-4.545c1.182-1,3.931-1.536,4.7-1.681a4.546,4.546,0,0,1,4.578,2.231c.915,2,1.548,4.881,3.562,6.042a5.309,5.309,0,1,0,5.3-9.2c-2.015-1.161-4.508-.509-6.7-.3a4.528,4.528,0,0,1-4.4-2.538c-.731-2.077-1.428-4.389-3.443-5.55a5.3,5.3,0,0,0-7.736,6.123c.153,1.066.46,2.136.66,3.146a4.3,4.3,0,0,1-1.986,4.408C233.416,15.2,231.294,16.076,230.384,18.093Z" transform="translate(-214.393 0.082)" fill="color"/>
  <path id="Path_165" data-name="Path 165" d="M401.581,209.23a3.675,3.675,0,0,1-2.088-3.559c.318-1.758.754-3.671-.2-5.3a4.311,4.311,0,1,0-7.437,4.364c.956,1.629,2.786,2.069,4.477,2.65a3.69,3.69,0,0,1,2.335,3.415c-.158,1.781-.867,4.066.088,5.695a4.311,4.311,0,1,0,7.437-4.364C405.236,210.5,403.213,209.961,401.581,209.23Z" transform="translate(-364.809 -184.833)" fill="color"/>
  <path id="Path_166" data-name="Path 166" d="M623.582,315.934c-1.324-.014-2.38,1.007-3.408,1.724a2.57,2.57,0,0,1-2.893-.029c-.947-.826-1.935-1.779-3.259-1.791a3.023,3.023,0,1,0-.061,6.046c1.324.013,2.249-.928,3.209-1.735a2.587,2.587,0,0,1,2.9-.172c1.014.738,2.132,1.989,3.456,2a3.023,3.023,0,0,0,.061-6.046Z" transform="translate(-569.664 -294.481)" fill="color"/>
  <path id="Path_167" data-name="Path 167" d="M53.465,156.786c.839-1.863.082-3.754-.463-5.611a3.992,3.992,0,0,1,1.555-4.2c1.667-.974,4.129-1.779,4.968-3.642a4.665,4.665,0,0,0-8.507-3.833c-.84,1.863-.051,3.989.325,5.885a3.976,3.976,0,0,1-1.834,4.071,13.649,13.649,0,0,0-3.41,1.979c-.792.5-1.536,1.112-2.269,1.622-1.167.811-5.166.794-5.45-1.053-.168-1.1,1.082-2.32,2.157-2.526.648-.123,1.4-.185,2.129-.314a4.643,4.643,0,0,0,4.341-7.134c-1.1-1.724-3.305-2.231-5.1-2.956a3.978,3.978,0,0,1-2.4-3.768c.274-1.914.671-4-.426-5.723q-.132-.186-.282-.358c-.1-.354-.214-.706-.317-1.057a2.955,2.955,0,0,1,1.149-3.1c1.235-.721,3.055-1.316,3.676-2.693a3.448,3.448,0,0,0-6.287-2.833c-.62,1.377-.037,2.948.241,4.35a2.939,2.939,0,0,1-1.355,3.01c-.385.18-.782.362-1.169.562a4.61,4.61,0,0,0-2.1.692,4.665,4.665,0,0,0-1.43,6.441c1.1,1.724,3.093,2.128,4.944,2.691a3.994,3.994,0,0,1,2.659,3.6c-.089,1.678-.608,3.786-.024,5.437-.048.411-.089.819-.145,1.208a3.008,3.008,0,0,1-2.339,2.442,8.718,8.718,0,0,0-3.294.717,4.471,4.471,0,0,0,1.622,8.618c1.96.02,3.327-1.372,4.746-2.569a3.826,3.826,0,0,1,4.283-.254c.871.635,1.8,1.518,2.806,2.158l.011.007c.146.093.295.176.444.257.123.068.235.152.366.211a4.665,4.665,0,0,0,6.174-2.334Z" transform="translate(-28.168 -109.559)" fill="color"/>
  <path id="Path_168" data-name="Path 168" d="M333.208,443.524a4.665,4.665,0,0,0-5.924,2.907c-.66,1.933.271,3.745.988,5.543a4,4,0,0,1-1.149,4.327c-.541.385-1.169.762-1.794,1.166-.846.076-1.69.214-2.5.291a4.175,4.175,0,0,1-4.064-2.343A20.742,20.742,0,0,0,317.6,452.5a5.3,5.3,0,0,0-9.859-.465c-.955,2.12-.058,4.537.37,6.693a4.525,4.525,0,0,1-2.087,4.633c-1.993.934-4.224,1.858-5.179,3.978a5.309,5.309,0,1,0,9.681,4.362c.955-2.12.094-4.272-.527-6.384a4.542,4.542,0,0,1,1.766-4.778,31.3,31.3,0,0,1,4.84-1.656,4.194,4.194,0,0,1,4.226,2.061c.845,1.848,1.429,4.506,3.289,5.578a4.892,4.892,0,0,0,7.2-3.071c.005-.015.015-.027.02-.043.66-1.933-.324-3.974-.879-5.827a3.977,3.977,0,0,1,1.443-4.226c1.667-.982,3.542-1.974,4.2-3.908A4.665,4.665,0,0,0,333.208,443.524Z" transform="translate(-280.072 -413.3)" fill="color"/>
  <path id="Path_169" data-name="Path 169" d="M572.525,515.039a4,4,0,1,0,5.292-2A4,4,0,0,0,572.525,515.039Z" transform="translate(-533.49 -478.016)" fill="color"/>
  <path id="Path_170" data-name="Path 170" d="M480.527,728.975a4,4,0,1,0,2,5.292A4,4,0,0,0,480.527,728.975Z" transform="translate(-442.777 -679.358)" fill="color"/>
  <path id="Path_171" data-name="Path 171" d="M164.213,732.627a2.7,2.7,0,1,0,1.352,3.57A2.7,2.7,0,0,0,164.213,732.627Z" transform="translate(-149.561 -682.871)" fill="color"/>
  <path id="Path_172" data-name="Path 172" d="M7.872,457.568a4.118,4.118,0,1,0-5.445,2.063,4.118,4.118,0,0,0,5.445-2.063Z" transform="translate(0.001 -421.213)" fill="color"/>
  <path id="Path_173" data-name="Path 173" d="M727.944,220.955a2.622,2.622,0,1,0-1.314-3.468A2.622,2.622,0,0,0,727.944,220.955Z" transform="translate(-677.291 -201.337)" fill="color"/>
  <path id="Path_174" data-name="Path 174" d="M538.948,42.034a1.708,1.708,0,1,0-.855-2.259A1.708,1.708,0,0,0,538.948,42.034Z" transform="translate(-501.575 -36.141)" fill="color"/>
  <path id="Path_175" data-name="Path 175" d="M194.853,362.274a1.708,1.708,0,1,0,2.259-.856A1.708,1.708,0,0,0,194.853,362.274Z" transform="translate(-181.539 -336.839)" fill="color"/>
  <path id="Path_176" data-name="Path 176" d="M61.757,195.915a1.383,1.383,0,1,0-.693-1.829A1.383,1.383,0,0,0,61.757,195.915Z" transform="translate(-56.822 -180.199)" fill="color"/>
  <path id="Path_177" data-name="Path 177" d="M786.7,619.827a1.384,1.384,0,1,0,.693,1.829A1.384,1.384,0,0,0,786.7,619.827Z" transform="translate(-731.697 -577.805)" fill="color"/>
  <path id="Path_178" data-name="Path 178" d="M405.512,349.277a1.383,1.383,0,1,0,1.829-.693A1.383,1.383,0,0,0,405.512,349.277Z" transform="translate(-377.984 -324.899)" fill="color"/>
  <path id="Path_179" data-name="Path 179" d="M227.525,73.84a2.424,2.424,0,1,0-1.217-3.206A2.424,2.424,0,0,0,227.525,73.84Z" transform="translate(-210.809 -64.52)" fill="color"/>
</svg>
