<svg width="47" height="14" viewBox="0 0 47 14" fill="none" xmlns="http://www.w3.org/2000/svg">
<path d="M18.819 0.23291L16.4304 13.7965H20.2506L22.6412 0.23291H18.819Z" fill="white"/>
<path d="M13.2273 0.248153L9.48569 9.49814L9.08677 8.10146C8.34886 6.41861 6.25404 4.00177 3.79468 2.47864L7.21597 13.7899L11.2582 13.7832L17.2745 0.2453L13.2273 0.248153Z" fill="white"/>
<path d="M7.63649 1.21888C7.41443 0.392665 6.77085 0.146417 5.97203 0.116943H0.0491282L0 0.386961C4.60921 1.46893 7.65909 4.07593 8.92463 7.21059L7.63649 1.21888Z" fill="white"/>
<path d="M30.3838 2.83328C31.6336 2.81426 32.5396 3.07857 33.2431 3.35239L33.588 3.50927L34.1048 0.569507C33.3482 0.294736 32.1623 0 30.6825 0C26.9075 0 24.2467 1.83973 24.2261 4.4762C24.2015 6.42431 26.1214 7.51199 27.5717 8.16136C29.0603 8.82689 29.5594 9.24998 29.5526 9.84421C29.5408 10.7522 28.3656 11.1686 27.2681 11.1686C25.7382 11.1686 24.9257 10.9642 23.6709 10.4584L23.1787 10.2416L22.6412 13.2774C23.5353 13.6568 25.1851 13.9829 26.8977 14C30.9134 14 33.5231 12.1821 33.5506 9.36503C33.5673 7.82384 32.5484 6.64774 30.3406 5.68272C29.0043 5.05331 28.1868 4.63497 28.1947 3.99986C28.1947 3.43606 28.8883 2.83328 30.3838 2.83328Z" fill="white"/>
<path d="M43.9089 0.248108H40.9573C40.0405 0.248108 39.3586 0.489602 38.9558 1.37381L33.2834 13.8041H37.2953C37.2953 13.8041 37.9496 12.1327 38.098 11.7666C38.5372 11.7666 42.435 11.7723 42.9902 11.7723C43.1042 12.2458 43.4559 13.8041 43.4559 13.8041H47L43.9089 0.248108ZM39.1975 8.99038C39.5119 8.21171 40.7195 5.19969 40.7195 5.19969C40.6989 5.23677 41.031 4.41531 41.2285 3.90475L41.4859 5.07419C41.4859 5.07419 42.2179 8.31249 42.3712 8.99038H39.1975Z" fill="white"/>
</svg>
