<svg id="visa" xmlns="http://www.w3.org/2000/svg" viewBox="0 0 46.274 14.481" fill="color">
  <g transform="translate(4.324 0)">
    <g transform="translate(0 0)">
      <path  d="M41.853,100.23,39.53,114.682h3.712l2.321-14.452Zm11.2,5.887c-1.3-.641-2.092-1.073-2.092-1.728.016-.6.672-1.206,2.139-1.206a6.459,6.459,0,0,1,2.765.535l.337.15.5-3.024a9.369,9.369,0,0,0-3.332-.6c-3.666,0-6.247,1.906-6.263,4.632-.03,2.012,1.848,3.128,3.254,3.8,1.436.687,1.925,1.132,1.925,1.743-.016.937-1.161,1.369-2.23,1.369a7.549,7.549,0,0,1-3.484-.745l-.489-.223-.519,3.142a11.593,11.593,0,0,0,4.14.746c3.9,0,6.431-1.877,6.463-4.782C56.181,108.335,55.19,107.115,53.05,106.117Zm13.169-5.842H63.347a1.839,1.839,0,0,0-1.941,1.163l-5.514,13.245h3.9l1.073-2.868H65.22l.557,2.879h3.436Zm-4.277,8.646c.075.007,1.5-4.681,1.5-4.681l1.131,4.681ZM36.429,100.23l-3.637,9.819-.4-1.936a10.789,10.789,0,0,0-5.134-5.868l3.33,12.423H34.52l5.836-14.436H36.429Z" transform="translate(-27.262 -100.23)" fill="color"/>
    </g>
  </g>
  <path  d="M8.234,102.109a2.425,2.425,0,0,0-2.415-1.861H.059L0,100.515c4.493,1.108,8.264,4.516,9.488,7.722Z" transform="translate(0 -100.245)" fill="color"/>
</svg>
