<svg xmlns="http://www.w3.org/2000/svg" viewBox="0 0 25.201 18.884" fill="color">
  <g id="mail" transform="translate(-200.92 6.303)">
    <path d="M33.3,20.87a1.993,1.993,0,0,0-2.165-2.27l-20.869.015A1.993,1.993,0,0,0,8.1,20.885V35.274a2.463,2.463,0,0,0,.616,1.549l.06.06a2.268,2.268,0,0,0,1.473.541l20.884.06a2.076,2.076,0,0,0,2.15-2.135L33.3,20.87M31.463,34.658q-.015,1.128-1.233,1.158L10.985,35.71q-.09-.015-.15-.03-.9-.286-.872-1.7l.015-12.088,9.277,9.232a2.15,2.15,0,0,0,2.977-.015l.887-.872v-.03l.015-.015-.015.045,2.466-2.285,5.834-6.029.045,12.735m-8.435-6.8h.015l-.015.015v-.015m-.992.857a1.478,1.478,0,0,1-2.451-.045l-8.269-8.239h19.02Z" transform="translate(192.823 -24.903)" fill="color"/>
  </g>
</svg>
