<svg xmlns="http://www.w3.org/2000/svg" viewBox="0 0 21.806 21.81" fill="color">
  <g transform="translate(-0.449)">
    <path  d="M22.2,6.412a7.97,7.97,0,0,0-.507-2.646A5.587,5.587,0,0,0,18.5.575,7.99,7.99,0,0,0,15.855.068C14.688.013,14.317,0,11.356,0S8.024.013,6.861.064A7.972,7.972,0,0,0,4.215.571,5.322,5.322,0,0,0,2.281,1.832a5.37,5.37,0,0,0-1.257,1.93A7.991,7.991,0,0,0,.517,6.408C.461,7.576.449,7.946.449,10.907S.461,14.239.512,15.4a7.969,7.969,0,0,0,.507,2.646,5.586,5.586,0,0,0,3.191,3.191,7.991,7.991,0,0,0,2.646.507c1.163.051,1.534.064,4.495.064s3.332-.013,4.495-.064a7.968,7.968,0,0,0,2.646-.507,5.579,5.579,0,0,0,3.191-3.191,8,8,0,0,0,.507-2.646c.051-1.163.064-1.534.064-4.495s0-3.332-.055-4.495Zm-1.964,8.9a5.978,5.978,0,0,1-.375,2.024,3.618,3.618,0,0,1-2.071,2.071,6,6,0,0,1-2.024.375c-1.15.051-1.5.064-4.405.064s-3.259-.013-4.406-.064a5.975,5.975,0,0,1-2.024-.375A3.356,3.356,0,0,1,3.678,18.6a3.391,3.391,0,0,1-.814-1.253,6,6,0,0,1-.375-2.024c-.051-1.15-.064-1.5-.064-4.406s.013-3.259.064-4.405a5.975,5.975,0,0,1,.375-2.024,3.315,3.315,0,0,1,.818-1.253A3.386,3.386,0,0,1,4.935,2.42a6,6,0,0,1,2.024-.375c1.15-.051,1.5-.064,4.405-.064s3.259.013,4.406.064a5.978,5.978,0,0,1,2.024.375,3.354,3.354,0,0,1,1.253.814,3.39,3.39,0,0,1,.814,1.253,6,6,0,0,1,.375,2.024c.051,1.15.064,1.5.064,4.405s-.013,3.251-.064,4.4Zm0,0" fill="color"/>
    <path  d="M130.552,124.5a5.6,5.6,0,1,0,5.6,5.6A5.6,5.6,0,0,0,130.552,124.5Zm0,9.237a3.634,3.634,0,1,1,3.634-3.634,3.635,3.635,0,0,1-3.634,3.634Zm0,0" transform="translate(-119.196 -119.195)" fill="color"/>
    <path  d="M365.066,89.91a1.308,1.308,0,1,1-1.308-1.308A1.308,1.308,0,0,1,365.066,89.91Zm0,0" transform="translate(-346.578 -84.827)" fill="color"/>
  </g>
</svg>
