<svg xmlns="http://www.w3.org/2000/svg" viewBox="0 0 26.479 18.539" fill="color">
  <path d="M25.934-3.181A3.317,3.317,0,0,0,23.6-5.515c-2.072-.567-10.36-.567-10.36-.567s-8.288,0-10.36.545A3.384,3.384,0,0,0,.546-3.181,34.954,34.954,0,0,0,0,3.188,34.825,34.825,0,0,0,.546,9.556,3.318,3.318,0,0,0,2.88,11.89c2.094.567,10.36.567,10.36.567s8.288,0,10.36-.545a3.317,3.317,0,0,0,2.334-2.334,34.965,34.965,0,0,0,.545-6.369,33.18,33.18,0,0,0-.545-6.39ZM10.6,7.157V-.782l6.892,3.97Zm0,0" transform="translate(-0.001 6.082)" fill="color"/>
</svg>
