<svg  xmlns="http://www.w3.org/2000/svg" xmlns:xlink="http://www.w3.org/1999/xlink" viewBox="0 0 9 12" xml:space="preserve" fill="color">
<path class="st0" d="M7.7,1.3c-0.4-0.4-0.9-0.8-1.5-1c-1.1-0.5-2.4-0.4-3.5,0C0.5,1.3-0.6,4,0.4,6.2c0.2,0.4,0.5,0.9,0.8,1.3
	c0,0,0.1,0.1,0.1,0.2l2.9,4.1C4.3,11.9,4.4,12,4.5,12v0c0.1,0,0.2-0.1,0.3-0.2l2.9-4.1l0.1-0.2c0.3-0.4,0.6-0.8,0.8-1.3
	C9.4,4.6,9,2.6,7.7,1.3z M4.5,7C3.1,7,1.9,5.8,1.9,4.4v0c0-1.4,1.2-2.6,2.6-2.6c1.4,0,2.6,1.2,2.6,2.6S5.9,7,4.5,7z" fill="color"/>
</svg>
