<svg width="69" height="30" viewBox="0 0 69 30" fill="none" xmlns="http://www.w3.org/2000/svg">
<g filter="url(#filter0_d_49_289)">
<g clip-path="url(#clip0_49_289)">
<path d="M27.8455 0H8.59763C7.10515 0 6.14945 1.58394 6.84783 2.90073L8.77313 6.54025H5.28278C5.06174 6.54032 4.84446 6.59737 4.65199 6.70588C4.45953 6.81439 4.29839 6.97068 4.18419 7.15961C4.07 7.34854 4.00661 7.56371 4.00018 7.78428C3.99374 8.00484 4.04447 8.22333 4.14746 8.41858L10.3402 20.1196C10.4494 20.3254 10.6127 20.4976 10.8125 20.6177C11.0124 20.7378 11.2413 20.8013 11.4745 20.8013C11.7078 20.8013 11.9366 20.7378 12.1365 20.6177C12.3363 20.4976 12.4996 20.3254 12.6088 20.1196L14.2907 16.9589L16.4007 20.9468C17.1434 22.3494 19.1551 22.3519 19.9004 20.9509L29.548 2.82726C30.2299 1.54541 29.2994 0 27.8455 0ZM19.1994 7.74349L15.0395 15.5599C14.9668 15.6968 14.8581 15.8113 14.7251 15.8911C14.5922 15.971 14.4399 16.0132 14.2848 16.0132C14.1296 16.0132 13.9773 15.971 13.8444 15.8911C13.7114 15.8113 13.6027 15.6968 13.53 15.5599L9.41026 7.77637C9.34141 7.6466 9.30728 7.50127 9.3112 7.35447C9.31512 7.20766 9.35694 7.06436 9.43262 6.93843C9.5083 6.81249 9.61527 6.7082 9.74317 6.63566C9.87107 6.56311 10.0156 6.52476 10.1627 6.52432H18.4655C18.6089 6.52433 18.7499 6.56139 18.8748 6.63189C18.9996 6.7024 19.104 6.80395 19.1779 6.92668C19.2518 7.0494 19.2926 7.18913 19.2964 7.33226C19.3001 7.47539 19.2667 7.61706 19.1994 7.74349Z" fill="white"/>
<path d="M48.3185 8.40781H46.2131V15.6113C46.2128 15.6769 46.1866 15.7398 46.1401 15.7861C46.0937 15.8325 46.0307 15.8587 45.965 15.859H44.3413C44.2756 15.8587 44.2127 15.8325 44.1662 15.7861C44.1198 15.7398 44.0935 15.6769 44.0933 15.6113V8.40781H41.9755C41.9123 8.41031 41.8507 8.3877 41.8042 8.34494C41.7577 8.30218 41.7301 8.24275 41.7274 8.17969V6.89836C41.7278 6.86712 41.7343 6.83625 41.7465 6.80752C41.7588 6.77879 41.7767 6.75276 41.799 6.73091C41.8214 6.70906 41.8478 6.69182 41.8769 6.68018C41.9059 6.66853 41.937 6.66271 41.9683 6.66305H48.318C48.3838 6.65998 48.448 6.683 48.4968 6.72709C48.5456 6.77118 48.575 6.83275 48.5784 6.89836V8.17302C48.5748 8.23844 48.5455 8.2998 48.4968 8.34377C48.4482 8.38773 48.3841 8.41075 48.3185 8.40781Z" fill="white"/>
<path d="M55.0774 15.8071C54.6436 15.8687 53.9138 15.9679 52.5752 15.9679C50.9762 15.9679 49.5635 15.5594 49.5635 13.3076V9.19745C49.5635 6.94561 50.9891 6.5495 52.5876 6.5495C53.9256 6.5495 54.6461 6.64866 55.0774 6.71031C55.2509 6.73497 55.3255 6.79714 55.3255 6.95794V8.11032C55.3252 8.17592 55.299 8.23875 55.2525 8.28513C55.2061 8.33151 55.1431 8.35769 55.0774 8.35796H52.464C51.8815 8.35796 51.671 8.55576 51.671 9.19951V10.3257H54.9786C55.0443 10.326 55.1073 10.3521 55.1537 10.3985C55.2002 10.4449 55.2264 10.5077 55.2267 10.5733V11.7488C55.2264 11.8144 55.2002 11.8772 55.1537 11.9236C55.1073 11.97 55.0443 11.9962 54.9786 11.9965H51.671V13.3081C51.671 13.9513 51.8815 14.1496 52.464 14.1496H55.0774C55.1431 14.1499 55.2061 14.1761 55.2525 14.2225C55.299 14.2689 55.3252 14.3317 55.3255 14.3973V15.5481C55.3255 15.7079 55.2509 15.7824 55.0774 15.8071Z" fill="white"/>
<path d="M64.4291 15.8564H62.4585C62.2974 15.8564 62.2228 15.805 62.1364 15.6709L60.4277 12.9629L58.8796 15.6113C58.7927 15.7598 58.7062 15.859 58.5709 15.859H56.7387C56.6147 15.859 56.5529 15.7845 56.5529 15.6981C56.5554 15.6679 56.5638 15.6384 56.5776 15.6113L59.2605 11.1416L56.5478 6.89733C56.534 6.87468 56.5256 6.84921 56.5231 6.82284C56.5275 6.77737 56.5493 6.73535 56.5838 6.70543C56.6184 6.6755 56.6632 6.65997 56.7089 6.66203H58.7042C58.8405 6.66203 58.9399 6.78585 59.0129 6.89733L60.5986 9.39475L62.1333 6.89528C62.195 6.78379 62.3067 6.65997 62.4421 6.65997H64.2763C64.322 6.65791 64.3667 6.67345 64.4013 6.70337C64.4359 6.73329 64.4576 6.77532 64.4621 6.82078C64.4596 6.84716 64.4511 6.87263 64.4374 6.89528L61.738 11.1657L64.5532 15.6093C64.5751 15.6471 64.5878 15.6895 64.5902 15.7331C64.5907 15.8071 64.5285 15.8564 64.4291 15.8564Z" fill="white"/>
<path d="M38.7568 6.6877C38.7125 6.68781 38.6697 6.70323 38.6355 6.73133C38.6014 6.75944 38.578 6.79848 38.5695 6.84183L36.7702 13.4895C36.7455 13.6256 36.7085 13.6749 36.5968 13.6749C36.4851 13.6749 36.4481 13.6235 36.4234 13.4895L34.6221 6.84029C34.6135 6.79694 34.5902 6.75789 34.556 6.72979C34.5219 6.70169 34.479 6.68627 34.4348 6.68616H32.6639C32.6131 6.68629 32.5645 6.70647 32.5286 6.74228C32.4928 6.7781 32.4725 6.82663 32.4724 6.87728C32.4725 6.89181 32.4743 6.90628 32.4776 6.92043C32.4776 6.92043 34.6751 14.5442 34.6993 14.6192C34.9926 15.5276 35.7044 15.9617 36.6102 15.9617C37.4727 15.9617 38.2257 15.507 38.52 14.6218C38.555 14.519 40.7037 6.91992 40.7037 6.91992C40.7102 6.89194 40.7103 6.86285 40.704 6.83483C40.6976 6.80681 40.6851 6.78057 40.6671 6.75809C40.6492 6.73561 40.6264 6.71747 40.6005 6.70501C40.5746 6.69255 40.5462 6.68611 40.5174 6.68616L38.7568 6.6877Z" fill="white"/>
<path d="M27.8455 0H8.59763C7.10515 0 6.14945 1.58394 6.84783 2.90073L8.77313 6.54025H5.28278C5.06174 6.54032 4.84446 6.59737 4.65199 6.70588C4.45953 6.81439 4.29839 6.97068 4.18419 7.15961C4.07 7.34854 4.00661 7.56371 4.00018 7.78428C3.99374 8.00484 4.04447 8.22333 4.14746 8.41858L10.3402 20.1196C10.4494 20.3254 10.6127 20.4976 10.8125 20.6177C11.0124 20.7378 11.2413 20.8013 11.4745 20.8013C11.7078 20.8013 11.9366 20.7378 12.1365 20.6177C12.3363 20.4976 12.4996 20.3254 12.6088 20.1196L14.2907 16.9589L16.4007 20.9468C17.1434 22.3494 19.1551 22.3519 19.9004 20.9509L29.548 2.82726C30.2299 1.54541 29.2994 0 27.8455 0ZM19.1994 7.74349L15.0395 15.5599C14.9668 15.6968 14.8581 15.8113 14.7251 15.8911C14.5922 15.971 14.4399 16.0132 14.2848 16.0132C14.1296 16.0132 13.9773 15.971 13.8444 15.8911C13.7114 15.8113 13.6027 15.6968 13.53 15.5599L9.41026 7.77637C9.34141 7.6466 9.30728 7.50127 9.3112 7.35447C9.31512 7.20766 9.35694 7.06436 9.43262 6.93843C9.5083 6.81249 9.61527 6.7082 9.74317 6.63566C9.87107 6.56311 10.0156 6.52476 10.1627 6.52432H18.4655C18.6089 6.52433 18.7499 6.56139 18.8748 6.63189C18.9996 6.7024 19.104 6.80395 19.1779 6.92668C19.2518 7.0494 19.2926 7.18913 19.2964 7.33226C19.3001 7.47539 19.2667 7.61706 19.1994 7.74349Z" fill="white"/>
</g>
</g>
<defs>
<filter id="filter0_d_49_289" x="0" y="0" width="68.5902" height="30" filterUnits="userSpaceOnUse" color-interpolation-filters="sRGB">
<feFlood flood-opacity="0" result="BackgroundImageFix"/>
<feColorMatrix in="SourceAlpha" type="matrix" values="0 0 0 0 0 0 0 0 0 0 0 0 0 0 0 0 0 0 127 0" result="hardAlpha"/>
<feOffset dy="4"/>
<feGaussianBlur stdDeviation="2"/>
<feComposite in2="hardAlpha" operator="out"/>
<feColorMatrix type="matrix" values="0 0 0 0 0 0 0 0 0 0 0 0 0 0 0 0 0 0 0.25 0"/>
<feBlend mode="normal" in2="BackgroundImageFix" result="effect1_dropShadow_49_289"/>
<feBlend mode="normal" in="SourceGraphic" in2="effect1_dropShadow_49_289" result="shape"/>
</filter>
<clipPath id="clip0_49_289">
<rect width="60.5902" height="22" fill="white" transform="translate(4)"/>
</clipPath>
</defs>
</svg>
