<?xml version="1.0" encoding="utf-8"?>
<!-- Generator: Adobe Illustrator 25.0.0, SVG Export Plug-In . SVG Version: 6.00 Build 0)  -->
<svg xmlns="http://www.w3.org/2000/svg" xmlns:xlink="http://www.w3.org/1999/xlink" viewBox="0 0 10.8 19.2" xml:space="preserve" fill="color">

<path class="st0" d="M0.4,17.2c-0.4,0.5-0.4,1.1,0,1.5c0.2,0.2,0.5,0.4,0.8,0.4h0.1c0.3,0,0.6-0.1,0.8-0.3l8.4-8.4
	c0.4-0.4,0.4-1.1,0-1.6L2.1,0.4c0,0,0-0.1-0.1-0.1C1.7,0.1,1.4,0,1.1,0S0.5,0.2,0.4,0.4C0.2,0.6,0.1,0.9,0.1,1.2S0.3,1.8,0.5,2
	l7.6,7.6L0.4,17.2z"/>
</svg>
