<svg width="20" height="20" viewBox="0 0 20 20" fill="none" xmlns="http://www.w3.org/2000/svg">
<path d="M17.5 13.3333H5.83335C5.61234 13.3333 5.40038 13.2455 5.2441 13.0893C5.08782 12.933 5.00002 12.721 5.00002 12.5C5.00002 12.279 5.08782 12.067 5.2441 11.9108C5.40038 11.7545 5.61234 11.6667 5.83335 11.6667H14.5334C15.0906 11.6667 15.6318 11.4806 16.0712 11.1379C16.5105 10.7951 16.8228 10.3155 16.9584 9.77501L18.3334 4.36667C18.3646 4.24368 18.3673 4.11518 18.3413 3.99098C18.3153 3.86678 18.2613 3.75016 18.1834 3.65001C18.1023 3.54728 17.9982 3.46509 17.8795 3.41007C17.7608 3.35506 17.6308 3.32877 17.5 3.33334H5.63335C5.46143 2.84705 5.1433 2.42584 4.72257 2.12745C4.30185 1.82907 3.79914 1.66812 3.28335 1.66667H2.50002C2.27901 1.66667 2.06704 1.75447 1.91076 1.91075C1.75448 2.06703 1.66669 2.27899 1.66669 2.50001C1.66669 2.72102 1.75448 2.93298 1.91076 3.08926C2.06704 3.24554 2.27901 3.33334 2.50002 3.33334H3.28335C3.47372 3.32779 3.66023 3.38762 3.81186 3.50285C3.96348 3.61808 4.07106 3.78178 4.11669 3.96667L4.16669 4.36667L5.60835 10C4.94531 10.0298 4.32128 10.3218 3.87354 10.8118C3.42579 11.3017 3.19102 11.9495 3.22085 12.6125C3.25069 13.2755 3.5427 13.8996 4.03264 14.3473C4.52258 14.7951 5.17031 15.0298 5.83335 15H5.98335C5.8463 15.3776 5.80226 15.7827 5.85496 16.1809C5.90767 16.5792 6.05556 16.9588 6.28612 17.2878C6.51668 17.6168 6.82312 17.8853 7.17948 18.0707C7.53585 18.2561 7.93164 18.3529 8.33335 18.3529C8.73507 18.3529 9.13086 18.2561 9.48723 18.0707C9.84359 17.8853 10.15 17.6168 10.3806 17.2878C10.6111 16.9588 10.759 16.5792 10.8117 16.1809C10.8644 15.7827 10.8204 15.3776 10.6834 15H12.65C12.513 15.3776 12.4689 15.7827 12.5216 16.1809C12.5743 16.5792 12.7222 16.9588 12.9528 17.2878C13.1833 17.6168 13.4898 17.8853 13.8461 18.0707C14.2025 18.2561 14.5983 18.3529 15 18.3529C15.4017 18.3529 15.7975 18.2561 16.1539 18.0707C16.5103 17.8853 16.8167 17.6168 17.0473 17.2878C17.2778 16.9588 17.4257 16.5792 17.4784 16.1809C17.5311 15.7827 17.4871 15.3776 17.35 15H17.5C17.721 15 17.933 14.9122 18.0893 14.7559C18.2456 14.5996 18.3334 14.3877 18.3334 14.1667C18.3334 13.9457 18.2456 13.7337 18.0893 13.5774C17.933 13.4211 17.721 13.3333 17.5 13.3333ZM16.4334 5.00001L15.3417 9.36667C15.2961 9.55157 15.1885 9.71526 15.0369 9.83049C14.8852 9.94573 14.6987 10.0056 14.5084 10H7.31669L6.06669 5.00001H16.4334ZM8.33335 16.6667C8.16854 16.6667 8.00742 16.6178 7.87038 16.5262C7.73334 16.4347 7.62653 16.3045 7.56345 16.1522C7.50038 16 7.48388 15.8324 7.51603 15.6708C7.54819 15.5091 7.62755 15.3606 7.7441 15.2441C7.86064 15.1275 8.00913 15.0482 8.17078 15.016C8.33243 14.9839 8.49999 15.0004 8.65226 15.0634C8.80453 15.1265 8.93468 15.2333 9.02625 15.3704C9.11781 15.5074 9.16669 15.6685 9.16669 15.8333C9.16669 16.0544 9.07889 16.2663 8.92261 16.4226C8.76633 16.5789 8.55437 16.6667 8.33335 16.6667ZM15 16.6667C14.8352 16.6667 14.6741 16.6178 14.537 16.5262C14.4 16.4347 14.2932 16.3045 14.2301 16.1522C14.167 16 14.1505 15.8324 14.1827 15.6708C14.2149 15.5091 14.2942 15.3606 14.4108 15.2441C14.5273 15.1275 14.6758 15.0482 14.8374 15.016C14.9991 14.9839 15.1667 15.0004 15.3189 15.0634C15.4712 15.1265 15.6013 15.2333 15.6929 15.3704C15.7845 15.5074 15.8334 15.6685 15.8334 15.8333C15.8334 16.0544 15.7456 16.2663 15.5893 16.4226C15.433 16.5789 15.221 16.6667 15 16.6667Z" fill="#F4F6F8"/>
</svg>
