<svg width="496" height="1750" viewBox="0 0 496 1750" fill="none" xmlns="http://www.w3.org/2000/svg">
<path d="M3036.64 707.2C2835.79 1456.81 2065.33 1901.67 1315.76 1700.82C566.198 1499.97 121.376 729.462 322.23 -20.1517C523.083 -769.766 1293.54 -1214.63 2043.11 -1013.77C2792.67 -812.921 3237.49 -42.4144 3036.64 707.2Z" fill="#7D181A"/>
<mask id="mask0_211:352" style="mask-type:alpha" maskUnits="userSpaceOnUse" x="0" y="-1730" width="2827" height="2828">
<path d="M2770.66 47.4921C2569.81 797.11 1799.34 1241.97 1049.78 1041.11C300.225 840.26 -144.602 69.7509 56.2481 -679.859C257.098 -1429.47 1027.56 -1874.33 1777.13 -1673.48C2526.69 -1472.63 2971.51 -702.122 2770.66 47.4921Z" stroke="white" stroke-width="15.76"/>
</mask>
<g mask="url(#mask0_211:352)">
<path d="M2770.66 47.4921C2569.81 797.11 1799.34 1241.97 1049.78 1041.11C300.225 840.26 -144.602 69.7509 56.2481 -679.859C257.098 -1429.47 1027.56 -1874.33 1777.13 -1673.48C2526.69 -1472.63 2971.51 -702.122 2770.66 47.4921Z" stroke="white" stroke-width="15.76"/>
</g>
</svg>
